<?xml version="1.0" encoding="UTF-8"?>
<svg width="143px" height="303px" viewBox="0 0 143 303" version="1.1" xmlns="http://www.w3.org/2000/svg" xmlns:xlink="http://www.w3.org/1999/xlink">
    <title>dot-pattern</title>
    <g id="Page-1" stroke="none" stroke-width="1" fill="none" fill-rule="evenodd">
        <g id="-" transform="translate(-432.000000, -33.000000)" fill="#D8D8D8">
            <g id="dot-pattern" transform="translate(432.000000, 33.000000)">
                <circle id="Oval" cx="1.5" cy="1.5" r="1.5"></circle>
                <circle id="Oval-Copy" cx="21.5" cy="1.5" r="1.5"></circle>
                <circle id="Oval-Copy-2" cx="41.5" cy="1.5" r="1.5"></circle>
                <circle id="Oval-Copy-3" cx="61.5" cy="1.5" r="1.5"></circle>
                <circle id="Oval-Copy-7" cx="81.5" cy="1.5" r="1.5"></circle>
                <circle id="Oval-Copy-6" cx="101.5" cy="1.5" r="1.5"></circle>
                <circle id="Oval-Copy-5" cx="121.5" cy="1.5" r="1.5"></circle>
                <circle id="Oval-Copy-4" cx="141.5" cy="1.5" r="1.5"></circle>
                <circle id="Oval-Copy-15" cx="1.5" cy="21.5" r="1.5"></circle>
                <circle id="Oval-Copy-14" cx="21.5" cy="21.5" r="1.5"></circle>
                <circle id="Oval-Copy-13" cx="41.5" cy="21.5" r="1.5"></circle>
                <circle id="Oval-Copy-12" cx="61.5" cy="21.5" r="1.5"></circle>
                <circle id="Oval-Copy-11" cx="81.5" cy="21.5" r="1.5"></circle>
                <circle id="Oval-Copy-10" cx="101.5" cy="21.5" r="1.5"></circle>
                <circle id="Oval-Copy-9" cx="121.5" cy="21.5" r="1.5"></circle>
                <circle id="Oval-Copy-8" cx="141.5" cy="21.5" r="1.5"></circle>
                <circle id="Oval-Copy-31" cx="1.5" cy="41.5" r="1.5"></circle>
                <circle id="Oval-Copy-30" cx="21.5" cy="41.5" r="1.5"></circle>
                <circle id="Oval-Copy-29" cx="41.5" cy="41.5" r="1.5"></circle>
                <circle id="Oval-Copy-28" cx="61.5" cy="41.5" r="1.5"></circle>
                <circle id="Oval-Copy-27" cx="81.5" cy="41.5" r="1.5"></circle>
                <circle id="Oval-Copy-26" cx="101.5" cy="41.5" r="1.5"></circle>
                <circle id="Oval-Copy-25" cx="121.5" cy="41.5" r="1.5"></circle>
                <circle id="Oval-Copy-24" cx="141.5" cy="41.5" r="1.5"></circle>
                <circle id="Oval-Copy-23" cx="1.5" cy="61.5" r="1.5"></circle>
                <circle id="Oval-Copy-22" cx="21.5" cy="61.5" r="1.5"></circle>
                <circle id="Oval-Copy-21" cx="41.5" cy="61.5" r="1.5"></circle>
                <circle id="Oval-Copy-20" cx="61.5" cy="61.5" r="1.5"></circle>
                <circle id="Oval-Copy-19" cx="81.5" cy="61.5" r="1.5"></circle>
                <circle id="Oval-Copy-18" cx="101.5" cy="61.5" r="1.5"></circle>
                <circle id="Oval-Copy-17" cx="121.5" cy="61.5" r="1.5"></circle>
                <circle id="Oval-Copy-16" cx="141.5" cy="61.5" r="1.5"></circle>
                <circle id="Oval-Copy-63" cx="1.5" cy="81.5" r="1.5"></circle>
                <circle id="Oval-Copy-62" cx="21.5" cy="81.5" r="1.5"></circle>
                <circle id="Oval-Copy-61" cx="41.5" cy="81.5" r="1.5"></circle>
                <circle id="Oval-Copy-60" cx="61.5" cy="81.5" r="1.5"></circle>
                <circle id="Oval-Copy-59" cx="81.5" cy="81.5" r="1.5"></circle>
                <circle id="Oval-Copy-58" cx="101.5" cy="81.5" r="1.5"></circle>
                <circle id="Oval-Copy-57" cx="121.5" cy="81.5" r="1.5"></circle>
                <circle id="Oval-Copy-56" cx="141.5" cy="81.5" r="1.5"></circle>
                <circle id="Oval-Copy-55" cx="1.5" cy="101.5" r="1.5"></circle>
                <circle id="Oval-Copy-54" cx="21.5" cy="101.5" r="1.5"></circle>
                <circle id="Oval-Copy-53" cx="41.5" cy="101.5" r="1.5"></circle>
                <circle id="Oval-Copy-52" cx="61.5" cy="101.5" r="1.5"></circle>
                <circle id="Oval-Copy-51" cx="81.5" cy="101.5" r="1.5"></circle>
                <circle id="Oval-Copy-50" cx="101.5" cy="101.5" r="1.5"></circle>
                <circle id="Oval-Copy-49" cx="121.5" cy="101.5" r="1.5"></circle>
                <circle id="Oval-Copy-48" cx="141.5" cy="101.5" r="1.5"></circle>
                <circle id="Oval-Copy-47" cx="1.5" cy="121.5" r="1.5"></circle>
                <circle id="Oval-Copy-46" cx="21.5" cy="121.5" r="1.5"></circle>
                <circle id="Oval-Copy-45" cx="41.5" cy="121.5" r="1.5"></circle>
                <circle id="Oval-Copy-44" cx="61.5" cy="121.5" r="1.5"></circle>
                <circle id="Oval-Copy-43" cx="81.5" cy="121.5" r="1.5"></circle>
                <circle id="Oval-Copy-42" cx="101.5" cy="121.5" r="1.5"></circle>
                <circle id="Oval-Copy-41" cx="121.5" cy="121.5" r="1.5"></circle>
                <circle id="Oval-Copy-40" cx="141.5" cy="121.5" r="1.5"></circle>
                <circle id="Oval-Copy-39" cx="1.5" cy="141.5" r="1.5"></circle>
                <circle id="Oval-Copy-38" cx="21.5" cy="141.5" r="1.5"></circle>
                <circle id="Oval-Copy-37" cx="41.5" cy="141.5" r="1.5"></circle>
                <circle id="Oval-Copy-36" cx="61.5" cy="141.5" r="1.5"></circle>
                <circle id="Oval-Copy-35" cx="81.5" cy="141.5" r="1.5"></circle>
                <circle id="Oval-Copy-34" cx="101.5" cy="141.5" r="1.5"></circle>
                <circle id="Oval-Copy-33" cx="121.5" cy="141.5" r="1.5"></circle>
                <circle id="Oval-Copy-32" cx="141.5" cy="141.5" r="1.5"></circle>
                <circle id="Oval-Copy-127" cx="1.5" cy="161.5" r="1.5"></circle>
                <circle id="Oval-Copy-126" cx="21.5" cy="161.5" r="1.5"></circle>
                <circle id="Oval-Copy-125" cx="41.5" cy="161.5" r="1.5"></circle>
                <circle id="Oval-Copy-124" cx="61.5" cy="161.5" r="1.5"></circle>
                <circle id="Oval-Copy-123" cx="81.5" cy="161.5" r="1.5"></circle>
                <circle id="Oval-Copy-122" cx="101.5" cy="161.5" r="1.5"></circle>
                <circle id="Oval-Copy-121" cx="121.5" cy="161.5" r="1.5"></circle>
                <circle id="Oval-Copy-120" cx="141.5" cy="161.5" r="1.5"></circle>
                <circle id="Oval-Copy-119" cx="1.5" cy="181.5" r="1.5"></circle>
                <circle id="Oval-Copy-118" cx="21.5" cy="181.5" r="1.5"></circle>
                <circle id="Oval-Copy-117" cx="41.5" cy="181.5" r="1.5"></circle>
                <circle id="Oval-Copy-116" cx="61.5" cy="181.5" r="1.5"></circle>
                <circle id="Oval-Copy-115" cx="81.5" cy="181.5" r="1.5"></circle>
                <circle id="Oval-Copy-114" cx="101.5" cy="181.5" r="1.5"></circle>
                <circle id="Oval-Copy-113" cx="121.5" cy="181.5" r="1.5"></circle>
                <circle id="Oval-Copy-112" cx="141.5" cy="181.5" r="1.5"></circle>
                <circle id="Oval-Copy-111" cx="1.5" cy="201.5" r="1.5"></circle>
                <circle id="Oval-Copy-110" cx="21.5" cy="201.5" r="1.5"></circle>
                <circle id="Oval-Copy-109" cx="41.5" cy="201.5" r="1.5"></circle>
                <circle id="Oval-Copy-108" cx="61.5" cy="201.5" r="1.5"></circle>
                <circle id="Oval-Copy-107" cx="81.5" cy="201.5" r="1.5"></circle>
                <circle id="Oval-Copy-106" cx="101.5" cy="201.5" r="1.5"></circle>
                <circle id="Oval-Copy-105" cx="121.5" cy="201.5" r="1.5"></circle>
                <circle id="Oval-Copy-104" cx="141.5" cy="201.5" r="1.5"></circle>
                <circle id="Oval-Copy-103" cx="1.5" cy="221.5" r="1.5"></circle>
                <circle id="Oval-Copy-102" cx="21.5" cy="221.5" r="1.5"></circle>
                <circle id="Oval-Copy-101" cx="41.5" cy="221.5" r="1.5"></circle>
                <circle id="Oval-Copy-100" cx="61.5" cy="221.5" r="1.5"></circle>
                <circle id="Oval-Copy-99" cx="81.5" cy="221.5" r="1.5"></circle>
                <circle id="Oval-Copy-98" cx="101.5" cy="221.5" r="1.5"></circle>
                <circle id="Oval-Copy-97" cx="121.5" cy="221.5" r="1.5"></circle>
                <circle id="Oval-Copy-96" cx="141.5" cy="221.5" r="1.5"></circle>
                <circle id="Oval-Copy-95" cx="1.5" cy="241.5" r="1.5"></circle>
                <circle id="Oval-Copy-94" cx="21.5" cy="241.5" r="1.5"></circle>
                <circle id="Oval-Copy-93" cx="41.5" cy="241.5" r="1.5"></circle>
                <circle id="Oval-Copy-92" cx="61.5" cy="241.5" r="1.5"></circle>
                <circle id="Oval-Copy-91" cx="81.5" cy="241.5" r="1.5"></circle>
                <circle id="Oval-Copy-90" cx="101.5" cy="241.5" r="1.5"></circle>
                <circle id="Oval-Copy-89" cx="121.5" cy="241.5" r="1.5"></circle>
                <circle id="Oval-Copy-88" cx="141.5" cy="241.5" r="1.5"></circle>
                <circle id="Oval-Copy-87" cx="1.5" cy="261.5" r="1.5"></circle>
                <circle id="Oval-Copy-86" cx="21.5" cy="261.5" r="1.5"></circle>
                <circle id="Oval-Copy-85" cx="41.5" cy="261.5" r="1.5"></circle>
                <circle id="Oval-Copy-84" cx="61.5" cy="261.5" r="1.5"></circle>
                <circle id="Oval-Copy-83" cx="81.5" cy="261.5" r="1.5"></circle>
                <circle id="Oval-Copy-82" cx="101.5" cy="261.5" r="1.5"></circle>
                <circle id="Oval-Copy-81" cx="121.5" cy="261.5" r="1.5"></circle>
                <circle id="Oval-Copy-80" cx="141.5" cy="261.5" r="1.5"></circle>
                <circle id="Oval-Copy-79" cx="1.5" cy="281.5" r="1.5"></circle>
                <circle id="Oval-Copy-78" cx="21.5" cy="281.5" r="1.5"></circle>
                <circle id="Oval-Copy-77" cx="41.5" cy="281.5" r="1.5"></circle>
                <circle id="Oval-Copy-76" cx="61.5" cy="281.5" r="1.5"></circle>
                <circle id="Oval-Copy-75" cx="81.5" cy="281.5" r="1.5"></circle>
                <circle id="Oval-Copy-74" cx="101.5" cy="281.5" r="1.5"></circle>
                <circle id="Oval-Copy-73" cx="121.5" cy="281.5" r="1.5"></circle>
                <circle id="Oval-Copy-72" cx="141.5" cy="281.5" r="1.5"></circle>
                <circle id="Oval-Copy-71" cx="1.5" cy="301.5" r="1.5"></circle>
                <circle id="Oval-Copy-70" cx="21.5" cy="301.5" r="1.5"></circle>
                <circle id="Oval-Copy-69" cx="41.5" cy="301.5" r="1.5"></circle>
                <circle id="Oval-Copy-68" cx="61.5" cy="301.5" r="1.5"></circle>
                <circle id="Oval-Copy-67" cx="81.5" cy="301.5" r="1.5"></circle>
                <circle id="Oval-Copy-66" cx="101.5" cy="301.5" r="1.5"></circle>
                <circle id="Oval-Copy-65" cx="121.5" cy="301.5" r="1.5"></circle>
                <circle id="Oval-Copy-64" cx="141.5" cy="301.5" r="1.5"></circle>
            </g>
        </g>
    </g>
</svg>