<svg width="143" height="303" xmlns="http://www.w3.org/2000/svg"><g fill="#D8D8D8" fill-rule="evenodd" fill-opacity=".806"><circle cx="1.5" cy="1.5" r="1.5"/><circle cx="21.5" cy="1.5" r="1.5"/><circle cx="41.5" cy="1.5" r="1.5"/><circle cx="61.5" cy="1.5" r="1.5"/><circle cx="81.5" cy="1.5" r="1.5"/><circle cx="101.5" cy="1.5" r="1.5"/><circle cx="121.5" cy="1.5" r="1.5"/><circle cx="141.5" cy="1.5" r="1.5"/><circle cx="1.5" cy="21.5" r="1.5"/><circle cx="21.5" cy="21.5" r="1.5"/><circle cx="41.5" cy="21.5" r="1.5"/><circle cx="61.5" cy="21.5" r="1.5"/><circle cx="81.5" cy="21.5" r="1.5"/><circle cx="101.5" cy="21.5" r="1.5"/><circle cx="121.5" cy="21.5" r="1.5"/><circle cx="141.5" cy="21.5" r="1.5"/><circle cx="1.5" cy="41.5" r="1.5"/><circle cx="21.5" cy="41.5" r="1.5"/><circle cx="41.5" cy="41.5" r="1.5"/><circle cx="61.5" cy="41.5" r="1.5"/><circle cx="81.5" cy="41.5" r="1.5"/><circle cx="101.5" cy="41.5" r="1.5"/><circle cx="121.5" cy="41.5" r="1.5"/><circle cx="141.5" cy="41.5" r="1.5"/><circle cx="1.5" cy="61.5" r="1.5"/><circle cx="21.5" cy="61.5" r="1.5"/><circle cx="41.5" cy="61.5" r="1.5"/><circle cx="61.5" cy="61.5" r="1.5"/><circle cx="81.5" cy="61.5" r="1.5"/><circle cx="101.5" cy="61.5" r="1.5"/><circle cx="121.5" cy="61.5" r="1.5"/><circle cx="141.5" cy="61.5" r="1.5"/><circle cx="1.5" cy="81.5" r="1.5"/><circle cx="21.5" cy="81.5" r="1.5"/><circle cx="41.5" cy="81.5" r="1.5"/><circle cx="61.5" cy="81.5" r="1.5"/><circle cx="81.5" cy="81.5" r="1.5"/><circle cx="101.5" cy="81.5" r="1.5"/><circle cx="121.5" cy="81.5" r="1.5"/><circle cx="141.5" cy="81.5" r="1.5"/><circle cx="1.5" cy="101.5" r="1.5"/><circle cx="21.5" cy="101.5" r="1.5"/><circle cx="41.5" cy="101.5" r="1.5"/><circle cx="61.5" cy="101.5" r="1.5"/><circle cx="81.5" cy="101.5" r="1.5"/><circle cx="101.5" cy="101.5" r="1.5"/><circle cx="121.5" cy="101.5" r="1.5"/><circle cx="141.5" cy="101.5" r="1.5"/><circle cx="1.5" cy="121.5" r="1.5"/><circle cx="21.5" cy="121.5" r="1.5"/><circle cx="41.5" cy="121.5" r="1.5"/><circle cx="61.5" cy="121.5" r="1.5"/><circle cx="81.5" cy="121.5" r="1.5"/><circle cx="101.5" cy="121.5" r="1.5"/><circle cx="121.5" cy="121.5" r="1.5"/><circle cx="141.5" cy="121.5" r="1.5"/><circle cx="1.5" cy="141.5" r="1.5"/><circle cx="21.5" cy="141.5" r="1.5"/><circle cx="41.5" cy="141.5" r="1.5"/><circle cx="61.5" cy="141.5" r="1.5"/><circle cx="81.5" cy="141.5" r="1.5"/><circle cx="101.5" cy="141.5" r="1.5"/><circle cx="121.5" cy="141.5" r="1.5"/><circle cx="141.5" cy="141.5" r="1.5"/><circle cx="1.5" cy="161.5" r="1.5"/><circle cx="21.5" cy="161.5" r="1.5"/><circle cx="41.5" cy="161.5" r="1.5"/><circle cx="61.5" cy="161.5" r="1.5"/><circle cx="81.5" cy="161.5" r="1.5"/><circle cx="101.5" cy="161.5" r="1.5"/><circle cx="121.5" cy="161.5" r="1.5"/><circle cx="141.5" cy="161.5" r="1.5"/><circle cx="1.5" cy="181.5" r="1.5"/><circle cx="21.5" cy="181.5" r="1.5"/><circle cx="41.5" cy="181.5" r="1.5"/><circle cx="61.5" cy="181.5" r="1.5"/><circle cx="81.5" cy="181.5" r="1.5"/><circle cx="101.5" cy="181.5" r="1.5"/><circle cx="121.5" cy="181.5" r="1.5"/><circle cx="141.5" cy="181.5" r="1.5"/><circle cx="1.5" cy="201.5" r="1.5"/><circle cx="21.5" cy="201.5" r="1.5"/><circle cx="41.5" cy="201.5" r="1.5"/><circle cx="61.5" cy="201.5" r="1.5"/><circle cx="81.5" cy="201.5" r="1.5"/><circle cx="101.5" cy="201.5" r="1.5"/><circle cx="121.5" cy="201.5" r="1.5"/><circle cx="141.5" cy="201.5" r="1.5"/><circle cx="1.5" cy="221.5" r="1.5"/><circle cx="21.5" cy="221.5" r="1.5"/><circle cx="41.5" cy="221.5" r="1.5"/><circle cx="61.5" cy="221.5" r="1.5"/><circle cx="81.5" cy="221.5" r="1.5"/><circle cx="101.5" cy="221.5" r="1.5"/><circle cx="121.5" cy="221.5" r="1.5"/><circle cx="141.5" cy="221.5" r="1.5"/><circle cx="1.5" cy="241.5" r="1.5"/><circle cx="21.5" cy="241.5" r="1.5"/><circle cx="41.5" cy="241.5" r="1.5"/><circle cx="61.5" cy="241.5" r="1.5"/><circle cx="81.5" cy="241.5" r="1.5"/><circle cx="101.5" cy="241.5" r="1.5"/><circle cx="121.5" cy="241.5" r="1.5"/><circle cx="141.5" cy="241.5" r="1.5"/><circle cx="1.5" cy="261.5" r="1.5"/><circle cx="21.5" cy="261.5" r="1.5"/><circle cx="41.5" cy="261.5" r="1.5"/><circle cx="61.5" cy="261.5" r="1.5"/><circle cx="81.5" cy="261.5" r="1.5"/><circle cx="101.5" cy="261.5" r="1.5"/><circle cx="121.5" cy="261.5" r="1.5"/><circle cx="141.5" cy="261.5" r="1.5"/><circle cx="1.5" cy="281.5" r="1.5"/><circle cx="21.5" cy="281.5" r="1.5"/><circle cx="41.5" cy="281.5" r="1.5"/><circle cx="61.5" cy="281.5" r="1.5"/><circle cx="81.5" cy="281.5" r="1.5"/><circle cx="101.5" cy="281.5" r="1.5"/><circle cx="121.5" cy="281.5" r="1.5"/><circle cx="141.5" cy="281.5" r="1.5"/><circle cx="1.5" cy="301.5" r="1.5"/><circle cx="21.5" cy="301.5" r="1.5"/><circle cx="41.5" cy="301.5" r="1.5"/><circle cx="61.5" cy="301.5" r="1.5"/><circle cx="81.5" cy="301.5" r="1.5"/><circle cx="101.5" cy="301.5" r="1.5"/><circle cx="121.5" cy="301.5" r="1.5"/><circle cx="141.5" cy="301.5" r="1.5"/></g></svg>